<svg xmlns="http://www.w3.org/2000/svg" viewBox="0 0 1024 1024" fill="none">
  <path d="M779.8 167.3C566.4 188.7 384.1 297.6 273 463.2c-73.5 109.5-89.4 236.5-42.2 334.6 35.2 73.2 100.5 113.2 183.7 112.5 105.2-.8 220.7-68.2 306.1-178.6 103.7-134 151.1-325.5 127.2-513.9-3.1-24.6-28.3-53.4-68-50.5Z" fill="#1FA37A"/>
  <path d="M244.7 800.8c164.1-171.7 298.8-289.5 489-431.8" stroke="#F7FFFA" stroke-width="66" stroke-linecap="round"/>
  <path d="M321.5 618.2c67.1 7.6 129.2 1 187.3-20.8" stroke="#BDEFD8" stroke-width="50" stroke-linecap="round"/>
  <path d="M468.4 467.1c51.7 8.6 102.8 4.3 153.8-13.5" stroke="#BDEFD8" stroke-width="44" stroke-linecap="round"/>
  <path d="M605.2 354.3c37.8 5.5 75.1 2.5 112.3-9.6" stroke="#BDEFD8" stroke-width="38" stroke-linecap="round"/>
</svg>
